<svg xmlns="http://www.w3.org/2000/svg" version="1.1" xmlns:xlink="http://www.w3.org/1999/xlink" xmlns:svgjs="http://svgjs.dev/svgjs" width="1000" height="750" viewBox="0 0 1000 750"><rect width="1000" height="750" fill="#ffffff"></rect><g transform="matrix(0.834,0,0,0.834,82.49454545454546,115.4193570850203)"><svg viewBox="0 0 396 247" data-background-color="#ffffff" preserveAspectRatio="xMidYMid meet" height="623" width="1000" xmlns="http://www.w3.org/2000/svg" xmlns:xlink="http://www.w3.org/1999/xlink"><g id="tight-bounds" transform="matrix(1,0,0,1,0.2400000000000091,-0.09999999999999432)"><svg viewBox="0 0 395.52 247.2" height="247.2" width="395.52"><g><svg></svg></g><g><svg viewBox="0 0 395.52 247.2" height="247.2" width="395.52"><mask id="822d88fc-b8c7-4bd0-9f28-163cf4b8d508"><rect width="395.52" height="247.2" fill="white"></rect><g transform="matrix(1,0,0,1,67.98133733224091,37.08)" id="clone"><svg viewBox="0 0 259.55732533551816 173.04" height="173.04" width="259.55732533551816"><g><svg viewBox="0 0 259.55732533551816 173.04" height="173.04" width="259.55732533551816"><g><svg viewBox="0 0 395.52 263.6827171474728" height="173.04" width="259.55732533551816"><g><svg viewBox="0 0 395.52 263.6827171474728" height="263.6827171474728" width="395.52"><g id="SvgjsG1053"><svg viewBox="0 0 395.52 263.6827171474728" height="263.6827171474728" width="395.52" id="SvgjsSvg1052"><g><svg viewBox="0 0 395.52 156.39061668681984" height="156.39061668681984" width="395.52"><g transform="matrix(1,0,0,1,0,0)"><svg width="395.52" viewBox="0 -46.55 125.04 50.05" height="156.39061668681984" data-palette-color="#ff0000"><path d="M28.45-0.55Q28.55-0.35 28.55-0.15L28.55-0.15Q28.55 0.15 28.25 0.33 27.95 0.5 27.65 0.5L27.65 0.5Q27.25 0.5 27.05 0.05L27.05 0.05 24.15-9.45 7.55-9.55 4.45-0.2Q4.35 0.1 4.2 0.23 4.05 0.35 3.75 0.35L3.75 0.35Q3.4 0.35 3.2 0.18 3 0 3-0.25L3-0.25 3.05-0.55Q8.05-15.45 9.8-20.8L9.8-20.8 12.9-30.05Q13.9-33 14.63-34.25 15.35-35.5 16.25-35.5L16.25-35.5Q17.85-35.5 19.3-30.55L19.3-30.55Q20.2-27.45 21.18-24.28 22.15-21.1 23.15-17.8L23.15-17.8 25.3-10.85 26.85-10.85Q27.15-10.85 27.33-10.65 27.5-10.45 27.5-10.15L27.5-10.15Q27.5-9.85 27.33-9.65 27.15-9.45 26.8-9.45L26.8-9.45 25.75-9.45 28.45-0.55ZM8.05-11.05L23.7-10.9Q19.8-23.85 17.95-30.35L17.95-30.35Q17.5-32 16.98-33.05 16.45-34.1 16.15-34.1L16.15-34.1Q15.7-34.1 14.4-30.2L14.4-30.2 8.05-11.05ZM49.05-25Q54.85-25 58.17-21.55 61.5-18.1 61.5-12.1L61.5-12.1Q61.5-7.45 59.55-4.7 57.6-1.95 54.85-0.85 52.1 0.25 49.35 0.25L49.35 0.25Q46.65 0.25 44.45-0.55 42.25-1.35 40.82-2.53 39.4-3.7 38.9-4.8L38.9-4.8Q38.85-3.4 38.1-2.33 37.35-1.25 36.2-0.65L36.2-0.65Q36-0.55 35.85-0.55L35.85-0.55Q35.45-0.55 35.25-0.83 35.05-1.1 35.05-1.35L35.05-1.35Q35.05-1.65 35.3-1.85L35.3-1.85Q36.1-2.6 36.55-3.05 37-3.5 37.3-4.2L37.3-4.2Q37.5-4.6 37.57-5.3 37.65-6 37.65-7.55L37.65-7.55Q37.65-10.2 37.35-19.5L37.35-19.5Q37.25-22.15 37.15-27.75L37.15-27.75Q37.05-30.4 36.92-35.27 36.8-40.15 36.65-42.7L36.65-42.7 36.65-42.8Q36.65-43.55 37.5-43.55L37.5-43.55Q38.3-43.55 38.3-42.8L38.3-42.8 38.45-36.7Q38.7-25.6 38.9-20.8L38.9-20.8Q40.55-22.7 43.1-23.85 45.65-25 49.05-25L49.05-25ZM49.35-1.3Q51.85-1.3 54.25-2.3 56.65-3.3 58.3-5.73 59.95-8.15 59.95-12.15L59.95-12.15Q59.95-17.55 56.95-20.5 53.95-23.45 49.15-23.45L49.15-23.45Q45.85-23.45 43.3-22.1 40.75-20.75 39.05-18.5L39.05-18.5 39.05-15.6 39.05-13.65Q39.1-11.85 39.25-8.5L39.25-8.5Q39.35-6.6 40.75-4.93 42.15-3.25 44.45-2.27 46.75-1.3 49.35-1.3L49.35-1.3ZM79.05 0Q74.95 0 72.12-1.8 69.3-3.6 67.9-6.5 66.5-9.4 66.5-12.65L66.5-12.65Q66.5-16.05 68-19 69.5-21.95 72.34-23.78 75.2-25.6 79.09-25.6L79.09-25.6Q82.45-25.6 85.05-24.23 87.65-22.85 89.09-20.48 90.55-18.1 90.55-15.1L90.55-15.1Q90.55-13.85 90.25-13.45 89.95-13.05 88.84-13.05L88.84-13.05 68.05-12.45Q68.05-9.5 69.37-7 70.7-4.5 73.22-3.03 75.75-1.55 79.09-1.55L79.09-1.55Q81.65-1.55 83.42-2.38 85.2-3.2 86.2-4.25 87.2-5.3 88.45-7.05L88.45-7.05Q88.59-7.25 88.9-7.25L88.9-7.25Q89.25-7.25 89.55-7.03 89.84-6.8 89.84-6.45L89.84-6.45Q89.84-6.2 89.55-5.8L89.55-5.8Q87.9-3.3 85.57-1.65 83.25 0 79.05 0L79.05 0ZM68.05-13.95L88.75-14.6Q88.95-14.6 89.02-14.7 89.09-14.8 89.09-15.2L89.09-15.2Q89.09-17.7 87.82-19.7 86.55-21.7 84.3-22.88 82.05-24.05 79.25-24.05L79.25-24.05Q75.84-24.05 73.3-22.43 70.75-20.8 69.4-18.43 68.05-16.05 68.05-13.95L68.05-13.95ZM107.89 0.35Q104.69 0.35 101.89-0.95 99.09-2.25 97.32-5.1 95.54-7.95 95.54-12.3L95.54-12.3Q95.54-18.3 98.97-21.68 102.39-25.05 108.19-25.05L108.19-25.05Q111.74-25.05 114.34-23.88 116.94-22.7 118.14-21.15L118.14-21.15Q118.09-24.7 118.34-31.28 118.59-37.85 118.99-42.7L118.99-42.7Q119.09-43.55 119.79-43.55L119.79-43.55Q120.19-43.55 120.42-43.35 120.64-43.15 120.59-42.8L120.59-42.8Q120.19-38.65 119.89-29.88 119.59-21.1 119.59-13.75L119.59-13.75Q119.59-5.65 119.99-4.2L119.99-4.2Q120.34-3 120.87-2.4 121.39-1.8 121.89-1.65L121.89-1.65Q122.04-1.6 122.04-1.3L122.04-1.3Q122.04-0.95 121.84-0.7 121.64-0.45 121.34-0.45L121.34-0.45Q121.14-0.45 120.94-0.55L120.94-0.55Q119.74-1.05 119.14-2.05 118.54-3.05 118.29-4.95L118.29-4.95Q116.99-2.6 114.12-1.13 111.24 0.35 107.89 0.35L107.89 0.35ZM107.89-1.2Q110.39-1.2 112.74-2.27 115.09-3.35 116.54-5.25 117.99-7.15 117.99-9.5L117.99-9.5Q117.99-12 118.04-13.4L118.04-13.4 118.09-18.8Q117.69-19.75 116.34-20.85 114.99-21.95 112.87-22.73 110.74-23.5 108.19-23.5L108.19-23.5Q104.94-23.5 102.42-22.15 99.89-20.8 98.49-18.28 97.09-15.75 97.09-12.25L97.09-12.25Q97.09-8.4 98.77-5.9 100.44-3.4 102.92-2.3 105.39-1.2 107.89-1.2L107.89-1.2Z" opacity="1" transform="matrix(1,0,0,1,0,0)" fill="black" class="wordmark-text-0" id="SvgjsPath1051" stroke-width="5" stroke="black" stroke-linejoin="round"></path></svg></g></svg></g><g transform="matrix(1,0,0,1,2.5,176.88544662752116)"><svg viewBox="0 0 390.52 86.79727051995162" height="86.79727051995162" width="390.52"><g transform="matrix(1,0,0,1,0,0)"><svg width="390.52" viewBox="-0.3599999999999999 -40.38 206.78 43.38" height="86.79727051995162" data-palette-color="#ed2647"><path d="M14.4-2.34L14.4-2.34Q16.21-2.34 17.69-2.7 19.17-3.05 20.24-3.81L20.24-3.81Q22.53-5.4 22.53-8.45L22.53-8.45Q22.53-11.04 20.85-12.7L20.85-12.7Q19.07-14.4 15.08-16.15 11.08-17.9 9-19.27 6.91-20.65 5.71-22.07L5.71-22.07Q3.54-24.56 3.54-28.1L3.54-28.1Q3.54-32.2 7.08-34.86L7.08-34.86Q10.38-37.38 15.06-37.38L15.06-37.38Q18.75-37.38 22.44-36.04L22.44-36.04Q23.97-35.42 25.22-34.69L25.22-34.69 24.37-28.17 22.31-28.17Q22.31-31.54 20.48-33.07 18.65-34.59 15.19-34.59L15.19-34.59Q10.4-34.59 8.64-31.47L8.64-31.47Q8.08-30.44 8.08-29.17 8.08-27.91 8.45-26.89 8.81-25.88 9.86-24.9L9.86-24.9Q11.91-22.92 17.58-20.56L17.58-20.56Q25.49-17.19 26.81-12.6L26.81-12.6Q27.2-11.16 27.2-9.53 27.2-7.91 26.65-6.46 26.1-5 25.15-3.87 24.19-2.73 22.94-1.9 21.68-1.07 20.26-0.54L20.26-0.54Q13.99 1.9 7.08-0.93L7.08-0.93Q4.57-1.98 2.64-3.49L2.64-3.49 3.66-10.5 5.74-10.5Q5.74-5.59 8.84-3.66L8.84-3.66Q10.96-2.34 14.4-2.34ZM161.52-34.18L172.22-5.86 178.49-26.27 178.25-23.02 174-34.18 170.95-34.74 170.95-36.82 182.37-36.82 182.4-34.74 178.83-34.18 188.33-6.03Q189.62-9.5 190.75-13.04L190.75-13.04 195.14-27.2Q196.26-30.71 197.56-34.18L197.56-34.18 194.04-34.74 194.04-36.82 203.42-36.82 203.42-34.74 200.71-34.28 188.89 0 186.25 0 178.54-22.17 179.74-21.9 172.78 0 170.14 0 156.69-34.18 153.91-34.74 153.91-36.82 164.6-36.82 164.77-34.74 161.52-34.18Z" opacity="1" transform="matrix(1,0,0,1,0,0)" fill="black" class="slogan-text-1" id="SvgjsPath1050" stroke-width="5" stroke="black" stroke-linejoin="round"></path></svg></g></svg></g></svg></g></svg></g></svg></g></svg></g></svg></g></mask><g mask="url(#822d88fc-b8c7-4bd0-9f28-163cf4b8d508)"><g><path d="M284.795 239.99c0.458 0.916 0.687 1.831 0.687 2.747v0c0 1.373-0.687 2.472-2.06 3.296-1.373 0.778-2.747 1.167-4.12 1.167v0c-1.831 0-3.204-1.03-4.12-3.09v0l-19.914-65.233-113.986-0.687-21.287 64.203c-0.458 1.373-1.03 2.358-1.717 2.953-0.687 0.549-1.717 0.824-3.09 0.824v0c-1.602 0-2.861-0.389-3.776-1.167-0.916-0.824-1.373-1.808-1.374-2.953v0l0.344-2.06c22.889-68.209 38.339-114.559 46.35-139.05v0l21.286-63.517c4.578-13.504 8.538-23.118 11.88-28.84 3.296-5.722 7.004-8.583 11.124-8.583v0c7.324 0 14.306 11.33 20.943 33.99v0c4.12 14.191 8.423 28.542 12.909 43.054 4.44 14.557 8.95 29.389 13.528 44.496v0l14.763 47.723h10.643c1.373 0 2.472 0.458 3.296 1.374 0.778 0.916 1.167 2.06 1.168 3.433v0c0 1.373-0.389 2.518-1.168 3.433-0.824 0.916-2.037 1.373-3.639 1.374v0h-7.21zM144.715 167.89l107.463 1.03c-17.853-59.282-31.014-103.801-39.483-133.557v0c-2.06-7.553-4.28-13.733-6.661-18.54-2.426-4.807-4.326-7.21-5.699-7.21v0c-2.06 0-6.066 8.927-12.017 26.78v0z" fill="#ff5858" fill-rule="nonzero" stroke="none" stroke-width="1" stroke-linecap="butt" stroke-linejoin="miter" stroke-miterlimit="10" stroke-dasharray="" stroke-dashoffset="0" font-family="none" font-weight="none" font-size="none" text-anchor="none" style="mix-blend-mode: normal" data-fill-palette-color="tertiary"></path></g></g><g transform="matrix(1,0,0,1,67.98133733224091,37.08)"><svg viewBox="0 0 259.55732533551816 173.04" height="173.04" width="259.55732533551816"><g><svg viewBox="0 0 259.55732533551816 173.04" height="173.04" width="259.55732533551816"><g><svg viewBox="0 0 395.52 263.6827171474728" height="173.04" width="259.55732533551816"><g><svg viewBox="0 0 395.52 263.6827171474728" height="263.6827171474728" width="395.52"><g id="textblocktransform"><svg viewBox="0 0 395.52 263.6827171474728" height="263.6827171474728" width="395.52" id="textblock"><g><svg viewBox="0 0 395.52 156.39061668681984" height="156.39061668681984" width="395.52"><g transform="matrix(1,0,0,1,0,0)"><svg width="395.52" viewBox="0 -46.55 125.04 50.05" height="156.39061668681984" data-palette-color="#ff0000"><path d="M28.45-0.55Q28.55-0.35 28.55-0.15L28.55-0.15Q28.55 0.15 28.25 0.33 27.95 0.5 27.65 0.5L27.65 0.5Q27.25 0.5 27.05 0.05L27.05 0.05 24.15-9.45 7.55-9.55 4.45-0.2Q4.35 0.1 4.2 0.23 4.05 0.35 3.75 0.35L3.75 0.35Q3.4 0.35 3.2 0.18 3 0 3-0.25L3-0.25 3.05-0.55Q8.05-15.45 9.8-20.8L9.8-20.8 12.9-30.05Q13.9-33 14.63-34.25 15.35-35.5 16.25-35.5L16.25-35.5Q17.85-35.5 19.3-30.55L19.3-30.55Q20.2-27.45 21.18-24.28 22.15-21.1 23.15-17.8L23.15-17.8 25.3-10.85 26.85-10.85Q27.15-10.85 27.33-10.65 27.5-10.45 27.5-10.15L27.5-10.15Q27.5-9.85 27.33-9.65 27.15-9.45 26.8-9.45L26.8-9.45 25.75-9.45 28.45-0.55ZM8.05-11.05L23.7-10.9Q19.8-23.85 17.95-30.35L17.95-30.35Q17.5-32 16.98-33.05 16.45-34.1 16.15-34.1L16.15-34.1Q15.7-34.1 14.4-30.2L14.4-30.2 8.05-11.05ZM49.05-25Q54.85-25 58.17-21.55 61.5-18.1 61.5-12.1L61.5-12.1Q61.5-7.45 59.55-4.7 57.6-1.95 54.85-0.85 52.1 0.25 49.35 0.25L49.35 0.25Q46.65 0.25 44.45-0.55 42.25-1.35 40.82-2.53 39.4-3.7 38.9-4.8L38.9-4.8Q38.85-3.4 38.1-2.33 37.35-1.25 36.2-0.65L36.2-0.65Q36-0.55 35.85-0.55L35.85-0.55Q35.45-0.55 35.25-0.83 35.05-1.1 35.05-1.35L35.05-1.35Q35.05-1.65 35.3-1.85L35.3-1.85Q36.1-2.6 36.55-3.05 37-3.5 37.3-4.2L37.3-4.2Q37.5-4.6 37.57-5.3 37.65-6 37.65-7.55L37.65-7.55Q37.65-10.2 37.35-19.5L37.35-19.5Q37.25-22.15 37.15-27.75L37.15-27.75Q37.05-30.4 36.92-35.27 36.8-40.15 36.65-42.7L36.65-42.7 36.65-42.8Q36.65-43.55 37.5-43.55L37.5-43.55Q38.3-43.55 38.3-42.8L38.3-42.8 38.45-36.7Q38.7-25.6 38.9-20.8L38.9-20.8Q40.55-22.7 43.1-23.85 45.65-25 49.05-25L49.05-25ZM49.35-1.3Q51.85-1.3 54.25-2.3 56.65-3.3 58.3-5.73 59.95-8.15 59.95-12.15L59.95-12.15Q59.95-17.55 56.95-20.5 53.95-23.45 49.15-23.45L49.15-23.45Q45.85-23.45 43.3-22.1 40.75-20.75 39.05-18.5L39.05-18.5 39.05-15.6 39.05-13.65Q39.1-11.85 39.25-8.5L39.25-8.5Q39.35-6.6 40.75-4.93 42.15-3.25 44.45-2.27 46.75-1.3 49.35-1.3L49.35-1.3ZM79.05 0Q74.95 0 72.12-1.8 69.3-3.6 67.9-6.5 66.5-9.4 66.5-12.65L66.5-12.65Q66.5-16.05 68-19 69.5-21.95 72.34-23.78 75.2-25.6 79.09-25.6L79.09-25.6Q82.45-25.6 85.05-24.23 87.65-22.85 89.09-20.48 90.55-18.1 90.55-15.1L90.55-15.1Q90.55-13.85 90.25-13.45 89.95-13.05 88.84-13.05L88.84-13.05 68.05-12.45Q68.05-9.5 69.37-7 70.7-4.5 73.22-3.03 75.75-1.55 79.09-1.55L79.09-1.55Q81.65-1.55 83.42-2.38 85.2-3.2 86.2-4.25 87.2-5.3 88.45-7.05L88.45-7.05Q88.59-7.25 88.9-7.25L88.9-7.25Q89.25-7.25 89.55-7.03 89.84-6.8 89.84-6.45L89.84-6.45Q89.84-6.2 89.55-5.8L89.55-5.8Q87.9-3.3 85.57-1.65 83.25 0 79.05 0L79.05 0ZM68.05-13.95L88.75-14.6Q88.95-14.6 89.02-14.7 89.09-14.8 89.09-15.2L89.09-15.2Q89.09-17.7 87.82-19.7 86.55-21.7 84.3-22.88 82.05-24.05 79.25-24.05L79.25-24.05Q75.84-24.05 73.3-22.43 70.75-20.8 69.4-18.43 68.05-16.05 68.05-13.95L68.05-13.95ZM107.89 0.35Q104.69 0.35 101.89-0.95 99.09-2.25 97.32-5.1 95.54-7.95 95.54-12.3L95.54-12.3Q95.54-18.3 98.97-21.68 102.39-25.05 108.19-25.05L108.19-25.05Q111.74-25.05 114.34-23.88 116.94-22.7 118.14-21.15L118.14-21.15Q118.09-24.7 118.34-31.28 118.59-37.85 118.99-42.7L118.99-42.7Q119.09-43.55 119.79-43.55L119.79-43.55Q120.19-43.55 120.42-43.35 120.64-43.15 120.59-42.8L120.59-42.8Q120.19-38.65 119.89-29.88 119.59-21.1 119.59-13.75L119.59-13.75Q119.59-5.65 119.99-4.2L119.99-4.2Q120.34-3 120.87-2.4 121.39-1.8 121.89-1.65L121.89-1.65Q122.04-1.6 122.04-1.3L122.04-1.3Q122.04-0.95 121.84-0.7 121.64-0.45 121.34-0.45L121.34-0.45Q121.14-0.45 120.94-0.55L120.94-0.55Q119.74-1.05 119.14-2.05 118.54-3.05 118.29-4.95L118.29-4.95Q116.99-2.6 114.12-1.13 111.24 0.35 107.89 0.35L107.89 0.35ZM107.89-1.2Q110.39-1.2 112.74-2.27 115.09-3.35 116.54-5.25 117.99-7.15 117.99-9.5L117.99-9.5Q117.99-12 118.04-13.4L118.04-13.4 118.09-18.8Q117.69-19.75 116.34-20.85 114.99-21.95 112.87-22.73 110.74-23.5 108.19-23.5L108.19-23.5Q104.94-23.5 102.42-22.15 99.89-20.8 98.49-18.28 97.09-15.75 97.09-12.25L97.09-12.25Q97.09-8.4 98.77-5.9 100.44-3.4 102.92-2.3 105.39-1.2 107.89-1.2L107.89-1.2Z" opacity="1" transform="matrix(1,0,0,1,0,0)" fill="#ff0000" class="wordmark-text-0" data-fill-palette-color="primary" id="text-0"></path></svg></g></svg></g><g transform="matrix(1,0,0,1,2.5,176.88544662752116)"><svg viewBox="0 0 390.52 86.79727051995162" height="86.79727051995162" width="390.52"><g transform="matrix(1,0,0,1,0,0)"><svg width="390.52" viewBox="-0.3599999999999999 -40.38 206.78 43.38" height="86.79727051995162" data-palette-color="#ed2647"><path d="M14.4-2.34L14.4-2.34Q16.21-2.34 17.69-2.7 19.17-3.05 20.24-3.81L20.24-3.81Q22.53-5.4 22.53-8.45L22.53-8.45Q22.53-11.04 20.85-12.7L20.85-12.7Q19.07-14.4 15.08-16.15 11.08-17.9 9-19.27 6.91-20.65 5.71-22.07L5.71-22.07Q3.54-24.56 3.54-28.1L3.54-28.1Q3.54-32.2 7.08-34.86L7.08-34.86Q10.38-37.38 15.06-37.38L15.06-37.38Q18.75-37.38 22.44-36.04L22.44-36.04Q23.97-35.42 25.22-34.69L25.22-34.69 24.37-28.17 22.31-28.17Q22.31-31.54 20.48-33.07 18.65-34.59 15.19-34.59L15.19-34.59Q10.4-34.59 8.64-31.47L8.64-31.47Q8.08-30.44 8.08-29.17 8.08-27.91 8.45-26.89 8.81-25.88 9.86-24.9L9.86-24.9Q11.91-22.92 17.58-20.56L17.58-20.56Q25.49-17.19 26.81-12.6L26.81-12.6Q27.2-11.16 27.2-9.53 27.2-7.91 26.65-6.46 26.1-5 25.15-3.87 24.19-2.73 22.94-1.9 21.68-1.07 20.26-0.54L20.26-0.54Q13.99 1.9 7.08-0.93L7.08-0.93Q4.57-1.98 2.64-3.49L2.64-3.49 3.66-10.5 5.74-10.5Q5.74-5.59 8.84-3.66L8.84-3.66Q10.96-2.34 14.4-2.34ZM161.52-34.18L172.22-5.86 178.49-26.27 178.25-23.02 174-34.18 170.95-34.74 170.95-36.82 182.37-36.82 182.4-34.74 178.83-34.18 188.33-6.03Q189.62-9.5 190.75-13.04L190.75-13.04 195.14-27.2Q196.26-30.71 197.56-34.18L197.56-34.18 194.04-34.74 194.04-36.82 203.42-36.82 203.42-34.74 200.71-34.28 188.89 0 186.25 0 178.54-22.17 179.74-21.9 172.78 0 170.14 0 156.69-34.18 153.91-34.74 153.91-36.82 164.6-36.82 164.77-34.74 161.52-34.18Z" opacity="1" transform="matrix(1,0,0,1,0,0)" fill="#ed2647" class="slogan-text-1" data-fill-palette-color="secondary" id="text-1"></path></svg></g></svg></g></svg></g></svg></g></svg></g></svg></g></svg></g></svg></g><defs></defs></svg><rect width="395.52" height="247.2" fill="none" stroke="none" visibility="hidden"></rect></g></svg></g></svg>